# xmcd
#
# Track frame offsets:
#	150
#	7117
#	27212
#	51772
#	67795
#	95820
#	113195
#	136370
#	151012
#	163565
#	184500
#	197747
#	204022
#	224175
#	242130
#	259310
#
# Disc length: 3708 seconds
#
# Revision: 1
# Processed by: cddbd v1.5.1PL0 Copyright (c) Steve Scherf et al.
# Submitted via: CDex 1.50Beta5
#
DISCID=de0e7a10
DTITLE=財津和夫 - 財津和夫ソロ・コンサート・ライブ/OTO GRA・音蔵シリーズ
DYEAR=1993
DGENRE=
TTITLE0=MC
TTITLE1=悪魔の子守唄
TTITLE2=My Sleazy Babe
TTITLE3=ぼくが愛した犬、どんパ
TTITLE4=まるで子供のように
TTITLE5=一枚の絵
TTITLE6=そして また あなたへ
TTITLE7=ともだちのあなただから
TTITLE8=私から年老いたあなた方へ
TTITLE9=たしかな愛
TTITLE10=Yesterday
TTITLE11=スカイラインのテーマ
TTITLE12=青春の影
TTITLE13=ル・デクラン
TTITLE14=一枚の絵
TTITLE15=そして また あなたへ
EXTD=
EXTT0=
EXTT1=
EXTT2=
EXTT3=
EXTT4=
EXTT5=
EXTT6=
EXTT7=
EXTT8=
EXTT9=
EXTT10=
EXTT11=
EXTT12=
EXTT13=
EXTT14=
EXTT15=
PLAYORDER=
